<?xml version="1.0" standalone="no"?>
<svg version="1.1" preserveAspectRatio="xMidYMid meet" viewBox="0 0 124 42" class="ng-element" data-id="b77dc5da369447dfaa070af0043cb50e" style="mix-blend-mode: normal; overflow: visible; width: 106px; height: 36px; filter: none;" xmlns="http://www.w3.org/2000/svg"><style type="text/css">
	.st0_1530858699467{fill:#00adef;}
</style><g id="logo_1530858699467">
	<path class="st0_1530858699467" d="M109.4,25.6L109.4,25.6l0.1-3.3c0-0.1-0.1-0.2-0.2-0.2H94.5c-0.1,0-0.1,0-0.1,0.1l-0.1,0.1v3.2&#xA;&#9;&#9;c0,0.1,0,0.1,0.1,0.1l0.1,0.1h5v13.4c0,0.1,0,0.1,0.1,0.1l0.1,0.1c0.9,0,3.4,0,3.8,0l0,0c0.2,0,0.4-0.1,0.6-0.2&#xA;&#9;&#9;c0.2-0.1,0.3-0.4,0.3-0.7V25.8v-0.1L109.4,25.6C109.3,25.7,109.4,25.7,109.4,25.6 M83.2,35.9C83.2,35.8,83.2,35.8,83.2,35.9&#xA;&#9;&#9;L83,35.7h-9.3v-3.8h8c0.1,0,0.1,0,0.1-0.1l0.1-0.1v-3.2c0-0.1,0-0.1-0.1-0.1l-0.1-0.1h-8v-2.6H83c0.1,0,0.1,0,0.1-0.1l0.1-0.1v-3.2&#xA;&#9;&#9;c0-0.1,0-0.1-0.1-0.1L83,22.1H68.8c-0.1,0-0.1,0-0.1,0.1l-0.1,0.1v15c0,0.6,0.3,1.1,0.7,1.5c0.4,0.3,1,0.5,1.4,0.5h11.5&#xA;&#9;&#9;c0.2,0,0.5-0.1,0.6-0.3c0.1-0.1,0.2-0.2,0.2-0.3c0,0,0-0.1,0.1-0.1c0,0,0,0,0-0.1l0,0L83.2,35.9L83.2,35.9z M98,36&#xA;&#9;&#9;C98,35.9,98,35.9,98,36l-0.2-0.2h-8.1V22.3c0-0.1,0-0.1-0.1-0.1l-0.1-0.1H85c-0.1,0-0.2,0.1-0.2,0.2v1.8V29v8.2&#xA;&#9;&#9;c0,0.8,0.3,1.3,0.7,1.6c0.4,0.3,0.9,0.5,1.3,0.5h10.4l0,0l0,0c0.2,0,0.4-0.1,0.6-0.3s0.2-0.4,0.2-0.6l0,0l0,0&#xA;&#9;&#9;C98,38.1,98,36.6,98,36 M63.5,29.6c-1.9-2.6-3.8-5.4-4.3-6l0,0c-0.2-0.4-0.6-0.7-0.8-0.9c-0.7-0.6-1.6-0.9-2.5-0.9&#xA;&#9;&#9;c-2.2,0-3.9,1.8-3.9,3.9v6c0,3.1,0,6.5,0,7.5c0,0.1,0,0.1,0.1,0.1l0.1,0.1h4.6c0.1,0,0.1,0,0.1-0.1l0.1-0.1V28.8l4.9,7.1h-3.2&#xA;&#9;&#9;c-0.1,0-0.1,0-0.1,0.1l-0.1,0.1v3.2c0,0.1,0,0.1,0.1,0.1l0.1,0.1h6.1c1.6,0,2.9-1.3,2.9-2.9c0-0.6-0.2-1.2-0.5-1.7&#xA;&#9;&#9;C67.1,34.7,65.4,32.3,63.5,29.6 M118,21.8c-1,0-1.8,0.3-2.5,0.9c-0.3,0.2-0.6,0.6-0.8,0.9c-0.4,0.6-2.4,3.4-4.3,6s-3.6,5.1-3.6,5.1&#xA;&#9;&#9;c-0.3,0.5-0.5,1.1-0.5,1.7c0,1.6,1.3,2.9,2.9,2.9h6.1c0.1,0,0.1,0,0.1-0.1l0.1-0.1v-3.2c0-0.1,0-0.1-0.1-0.1l-0.1-0.1h-3.2l4.9-7.1&#xA;&#9;&#9;V39c0,0.1,0,0.1,0.1,0.1l0.1,0.1h4.6c0.1,0,0.1,0,0.1-0.1L122,39V25.6C121.9,23.5,120.2,21.8,118,21.8" vector-effect="non-scaling-stroke"/>
	<path class="st0_1530858699467" d="M24.5,2.5L2,39.4h44.9L24.5,2.5z M28.8,35c-1,0-2-0.3-2.8-0.8c0,0,0,0-0.1,0c-2.5,1.8-5.3,2.9-7.9,2.9&#xA;&#9;&#9;c-0.1,0-0.3,0-0.4,0c-1.9-0.1-3.4-0.9-4.3-1.9c-0.9-1-1.3-2.3-1.4-3.3c0-0.1,0-0.2,0-0.3c0-3.2,2.2-6.6,5.1-9.4&#xA;&#9;&#9;c3-2.7,6.8-4.9,10.5-4.9c0,0,0,0,0.1,0c1.7,0,3.2,0.6,4.2,1.6c1,1,1.5,2.5,1.5,4c0,1.1-0.2,2.2-0.7,3.3c0.8,0.9,1.3,2.1,1.3,3.5&#xA;&#9;&#9;C34.1,32.7,31.7,35,28.8,35 M30.5,20.5c-0.6-0.6-1.5-1-2.9-1l0,0c-3,0-6.5,1.8-9.2,4.4c-2.7,2.5-4.6,5.7-4.5,7.9c0,0.1,0,0.1,0,0.2&#xA;&#9;&#9;c0,0.6,0.3,1.4,0.9,2.1c0.6,0.6,1.5,1.2,2.9,1.2c0.1,0,0.2,0,0.3,0c1.9,0,4.3-0.9,6.5-2.4c-0.6-0.9-1-1.9-1-3&#xA;&#9;&#9;c0-2.9,2.4-5.3,5.3-5.3c0.8,0,1.6,0.2,2.3,0.6c0.3-0.7,0.4-1.4,0.4-2.1C31.5,21.9,31.2,21,30.5,20.5" vector-effect="non-scaling-stroke"/>
</g></svg>